<svg width="87" height="81" viewBox="0 0 87 81" fill="none" xmlns="http://www.w3.org/2000/svg">
<path fill-rule="evenodd" clip-rule="evenodd" d="M33.2547 34.9853C34.7833 35.3993 39.1134 40.2809 40.0796 41.7333C41.714 44.1883 43.8525 47.5596 43.8525 51.5704V55.4725C43.8525 58.4179 42.9412 62.0186 41.9299 63.9775C41.3131 65.1719 40.8771 66.2024 40.2293 67.4106C39.7712 68.2637 39.3754 69.0846 39.1111 69.9429C38.7708 71.0415 38.547 72.5063 38.9854 73.6157C39.4045 74.6776 40.3235 74.8533 40.9611 75.8198C41.0694 76.0915 40.6731 76.6368 40.2747 76.5157C39.0293 76.5157 37.4693 75.3961 36.5795 74.1459C35.5415 72.6863 35.6703 70.2875 36.3224 68.6845C36.7723 67.5829 37.4592 66.61 37.9392 65.7901C38.8404 64.2469 39.5956 62.8821 40.3007 61.0733C41.3251 58.4449 42.1414 51.7894 41.1783 48.5636C40.1651 45.1656 38.2066 41.7168 36.0427 39.5499C34.8526 38.3594 29.1445 34.0511 27.308 34.0167L27.4757 34.9853C27.3138 35.229 27.0292 35.6824 26.6493 35.6824H26.5122C26.1409 35.6824 26.1326 35.616 25.8241 35.5431C25.9391 36.0482 26.5122 37.2419 26.5122 37.3559C26.5122 37.382 23.9725 40.1657 23.5648 40.7829C23.0579 41.5526 22.8995 41.9572 22.3277 42.7356C21.9619 43.2324 20.8686 43.9715 20.8686 44.6017C20.8686 46.8022 23.1785 48.3791 25.4091 48.3662C26.9955 48.3569 27.8965 48.3711 28.7508 49.1627C29.4907 49.847 30.3644 50.4855 30.3644 51.8491C30.3644 51.9463 29.8075 52.4884 29.6775 52.6847C26.7871 52.6847 23.0693 55.682 21.7511 57.4814C19.6534 60.3458 18.7356 62.963 17.9982 66.4077C12.2146 63.3086 7.76449 56.0417 6.47755 49.6892C5.81094 46.3955 5.82512 42.724 6.49722 39.4413C7.12053 36.4029 8.32173 34.2739 10.0528 31.6983C10.8751 30.4638 13.1165 28.0434 14.2378 27.1563C15.1146 26.4613 15.8212 25.898 16.7684 25.2587C17.1718 24.9862 19.3988 23.6889 19.4928 23.5593C17.4793 23.6031 13.8989 25.3439 12.3346 26.0651C3.76638 30.0128 -0.691453 40.7649 1.59478 49.9176C3.48314 57.4825 7.53499 62.8428 14.1256 66.8995C15.0012 67.4393 15.8437 67.8561 16.7878 68.3848C18.4886 69.3364 17.9169 69.1515 18.7495 70.7181C21.921 76.6774 27.9462 80 34.7691 80C41.0185 80 47.4745 77.3238 53.5672 75.9004C63.4582 73.5913 76.3045 72.0678 86.0173 75.633C85.1783 74.3627 83.9866 73.9042 82.0332 73.1126C77.6739 71.3471 73.2762 70.8023 68.625 70.8023C63.8687 70.8023 58.404 71.7319 53.8432 73.2546C51.7629 73.9478 45.3663 76.4696 45.3663 71.3599V70.6631C45.3663 69.0701 47.7165 63.8955 48.4237 62.7497C50.5499 59.3047 52.1426 54.0887 52.7715 50.008C53.026 48.3538 52.2044 46.1191 51.8345 45.0204C50.9463 42.3747 48.6696 39.4474 48.6696 36.2402V35.9621C48.6696 33.8968 49.536 32.5177 50.7829 31.6912C51.9701 30.9052 54.7961 31.92 56.3777 31.92H57.7532C60.2103 31.92 61.331 28.9811 61.331 26.4847V25.9271C60.8061 25.9169 57.818 25.0036 57.3615 24.7908C55.8298 24.0799 55.2999 23.8971 54.4538 22.4397C53.789 21.2967 53.2287 20.3917 52.4417 19.3196C52.1214 18.8807 49.9091 16.72 49.9091 16.5899C49.9091 15.063 51.3277 13.4204 51.5584 12.4093C50.7164 12.6078 48.624 13.9425 48.5324 13.9425C47.7902 13.9425 47.5686 12.8376 47.5686 11.9913C46.0133 12.1222 39.1062 19.5596 38.0746 21.0511C35.6773 24.5151 33.2547 29.1264 33.2547 34.9853Z" fill="black" stroke="#110B09" stroke-width="0.288" stroke-miterlimit="22.9256"/>
<path fill-rule="evenodd" clip-rule="evenodd" d="M27.1093 18.4861L27.2234 20.9338L27.4757 20.9098C27.8703 2.92113 50.2332 1.96967 60.1295 12.0934C63.2209 15.2553 66.5606 21.9281 66.5606 28.1577V34.1507C66.5606 36.7993 65.7805 41.1285 65.2892 43.5931C65.0856 44.6181 64.6197 46.9821 64.2739 47.9994C64.0454 48.6714 63.1636 51.7409 63.1206 52.2676C63.9283 51.3254 66.7959 42.728 67.3706 40.8227C68.465 37.1914 69.7267 31.9376 69.7267 27.3212V24.8124C69.7267 9.75533 57.7783 -0.699596 42.9038 1.2293C33.9846 2.38601 26.6617 8.88807 27.1093 18.4861Z" fill="black" stroke="#110B09" stroke-width="0.288" stroke-miterlimit="22.9256"/>
</svg>
